<svg xmlns="http://www.w3.org/2000/svg" viewBox="0 0 140 110">
	<path fill="#0606FF" d="M61.602,99.601c-2.688,0-5.043-2.267-5.043-4.851c0-6.361,9.61-8.887,20.803-11.771
		c1.963-3.719,3.814-7.75,5.607-11.651c2.173-4.728,4.225-9.193,6.317-12.795c0.894-2.464,2.045-4.925,3.105-6.711
		c-1.561,0.579-3.364,0.871-5.394,0.871c-0.946,0-1.845-0.063-2.656-0.158c0.749,0.962,1.337,2.416,1.337,4.615
		c0,5.431-4.774,14.438-9.857,14.438c-1.263,0-2.408-0.68-3.228-1.914c-0.668-1.007-1.066-2.316-1.066-3.504
		c0-4.542,1.505-7.585,2.768-9.338c0.789-1.096,1.72-2.019,2.718-2.716c-2.227-0.036-4.532-0.294-6.503-0.721
		c0.521,1.047,0.785,2.285,0.785,3.7c0,5.745-3.847,14.431-9.645,14.431c-2.157,0-4.136-2.185-4.427-4.734
		c-2.708,3.144-5.28,4.734-7.66,4.734c-2.025,0-4.423-1.321-4.618-7.463c-5.364,4.017-10.56,6.051-15.456,6.051
		c-6.787,0-11.906-7.09-11.906-16.492c0-10.859,5.84-21.01,16.445-28.579c11.338-8.094,26.766-12.372,44.615-12.372
		c11.311,0,22.489,3.376,30.669,9.262c8.906,6.407,13.81,15.406,13.81,25.34c0,11.208-4.938,19.703-15.096,25.972
		c-8.672,5.352-19.608,8.165-29.259,10.648l-0.571,0.147C74.301,91.339,68.909,99.601,61.602,99.601z M76.563,84.462
		c-11.392,2.969-18.771,5.406-18.771,10.288c0,1.893,1.815,3.616,3.809,3.616C66.641,98.366,71.283,94.065,76.563,84.462z
		 M87.791,63.979c-1.211,2.448-2.436,5.112-3.7,7.865c-1.643,3.574-3.334,7.257-5.121,10.722
		c9.438-2.43,20.047-5.212,28.408-10.372c9.764-6.024,14.51-14.177,14.51-24.921c0-9.525-4.722-18.168-13.296-24.338
		c-7.975-5.738-18.891-9.029-29.948-9.029c-17.591,0-32.771,4.199-43.898,12.143C24.475,33.38,18.817,43.172,18.817,53.622
		c0,8.698,4.589,15.258,10.672,15.258c4.85,0,10.054-2.147,15.47-6.382c0.285-4.231,2.906-11.692,6.592-18.73
		c1.999-3.814,7.088-12.688,11.161-12.688c2.11,0,3.37,1.36,3.37,3.64c0,4.188-8.593,19.327-19.914,28.396
		c0,0.042,0,0.084,0,0.125c0,4.679,1.143,7.051,3.396,7.051c2.263,0,4.837-1.83,7.654-5.439
		c0.524-10.793,7.436-13.023,7.731-13.113c0.229-0.07,0.479-0.001,0.64,0.178c0.16,0.178,0.203,0.434,0.108,0.654
		c-0.031,0.073-3.119,7.293-7.262,12.724c-0.01,0.279-0.015,0.564-0.015,0.856c0,2.09,1.6,4.141,3.229,4.141
		c4.799,0,8.41-8.005,8.41-13.195c0-1.729-0.444-3.127-1.32-4.157c-1.731-0.533-2.946-1.196-3.61-1.973
		c-0.163-0.191-0.194-0.464-0.077-0.687c0.116-0.224,0.358-0.354,0.607-0.329c0.09,0.009,2.148,0.23,3.763,1.902
		c2.259,0.647,5.277,1.033,8.115,1.033c0.884,0,1.714-0.038,2.467-0.112c0.332-0.069,0.66-0.11,0.979-0.121
		c0.323-0.013,0.604,0.234,0.636,0.56c0.03,0.325-0.198,0.618-0.521,0.668c-0.285,0.044-0.588,0.082-0.903,0.114
		c-3.609,0.793-7.434,5.318-7.434,12.176c0,1.747,1.164,4.184,3.06,4.184c3.997,0,8.623-7.99,8.623-13.203
		c0-3.289-1.437-4.562-2.659-5.048c-0.593-0.133-0.941-0.236-0.957-0.241c-0.301-0.089-0.487-0.391-0.432-0.7
		c0.056-0.309,0.322-0.528,0.648-0.507c0.049,0.003,0.495,0.037,1.098,0.263c1.137,0.25,2.889,0.542,4.855,0.542
		c2.833,0,5.166-0.604,6.935-1.797c0.308-0.316,0.575-0.5,0.84-0.574c0.281-0.079,0.579,0.051,0.715,0.31
		c0.134,0.26,0.069,0.578-0.157,0.763c-0.188,0.154-0.387,0.305-0.589,0.445c-0.469,0.516-1.104,1.485-1.788,2.741
		c1.762-1.9,3.453-2.812,5.162-2.812c2.648,0,4.168,1.94,4.168,5.324c0,6.044-4.889,15.667-10.681,15.667
		c-1.407,0-2.473-0.503-3.168-1.493C87.413,68.578,87.405,66.278,87.791,63.979z M90.409,59.059
		c-1.761,4.89-2.113,8.629-0.964,10.265c0.456,0.651,1.162,0.968,2.157,0.968c4.87,0,9.445-9.003,9.445-14.432
		c0-1.285-0.251-2.331-0.725-3.023c-0.491-0.717-1.214-1.065-2.208-1.065C95.761,51.771,93.312,54.087,90.409,59.059z
		 M63.854,53.646c-1.72,1.101-4.438,3.686-5.218,9.262C60.991,59.475,62.884,55.705,63.854,53.646z M62.712,32.313
		c-2.288,0-6.24,4.722-10.066,12.027c-3.232,6.17-5.693,12.864-6.321,17.049c10.771-9.063,18.523-23.202,18.523-26.671
		C64.848,33.123,64.129,32.313,62.712,32.313z"/>
	<path fill="#303030" d="M43.519,81.782l-2.194-0.009c-0.407-0.001-0.698-0.144-0.874-0.426l-1.725-2.803
		c-0.081-0.119-0.172-0.207-0.272-0.262c-0.1-0.056-0.243-0.084-0.43-0.085l-0.616-0.002l-0.015,3.562l-2.424-0.009l0.038-9.63
		l3.399,0.014c0.756,0.003,1.399,0.077,1.933,0.222c0.532,0.146,0.967,0.347,1.303,0.604s0.58,0.56,0.731,0.908
		c0.151,0.35,0.227,0.729,0.226,1.138c-0.001,0.313-0.048,0.608-0.14,0.886c-0.093,0.277-0.228,0.533-0.405,0.769
		s-0.397,0.444-0.659,0.628c-0.261,0.185-0.562,0.335-0.901,0.453c0.157,0.075,0.305,0.17,0.443,0.282
		c0.138,0.113,0.262,0.247,0.371,0.401L43.519,81.782z M38.389,76.66c0.33,0.001,0.61-0.036,0.844-0.113
		c0.231-0.075,0.422-0.182,0.571-0.318c0.148-0.136,0.257-0.295,0.324-0.478s0.102-0.379,0.103-0.591
		c0.002-0.423-0.146-0.754-0.443-0.993c-0.299-0.239-0.761-0.36-1.388-0.362l-0.975-0.004l-0.012,2.855L38.389,76.66z"/>
	<path fill="#303030" d="M45.267,78.729c0.068,0.573,0.256,0.989,0.562,1.248c0.305,0.259,0.698,0.39,1.182,0.391
		c0.258,0.002,0.48-0.026,0.668-0.083c0.187-0.057,0.353-0.119,0.498-0.189c0.147-0.069,0.281-0.133,0.402-0.19
		c0.123-0.057,0.251-0.085,0.385-0.084c0.177,0.001,0.311,0.061,0.401,0.18l0.643,0.736c-0.23,0.241-0.479,0.438-0.745,0.589
		c-0.266,0.151-0.538,0.269-0.819,0.354c-0.279,0.085-0.56,0.143-0.84,0.175c-0.279,0.032-0.546,0.048-0.8,0.047
		c-0.521-0.003-1.01-0.082-1.465-0.24c-0.457-0.158-0.855-0.393-1.196-0.702c-0.34-0.31-0.608-0.694-0.806-1.153
		c-0.196-0.459-0.294-0.992-0.292-1.601c0.003-0.458,0.089-0.892,0.26-1.301c0.172-0.409,0.417-0.768,0.737-1.074
		c0.318-0.308,0.704-0.551,1.157-0.729c0.452-0.179,0.963-0.268,1.532-0.265c0.492,0.002,0.942,0.074,1.352,0.217
		c0.407,0.143,0.759,0.349,1.052,0.618c0.293,0.271,0.521,0.601,0.685,0.991s0.244,0.832,0.242,1.326
		c-0.001,0.154-0.008,0.279-0.023,0.377c-0.015,0.097-0.041,0.173-0.08,0.23c-0.038,0.058-0.089,0.097-0.154,0.118
		c-0.064,0.022-0.146,0.032-0.247,0.032L45.267,78.729z M48.068,77.551c0-0.163-0.021-0.321-0.066-0.477
		c-0.045-0.154-0.118-0.292-0.221-0.414c-0.103-0.121-0.237-0.22-0.404-0.296c-0.167-0.075-0.37-0.113-0.609-0.114
		c-0.421-0.002-0.751,0.108-0.99,0.33c-0.241,0.222-0.4,0.541-0.478,0.96L48.068,77.551z"/>
	<path fill="#303030" d="M57.501,71.943l-0.039,9.895l-1.377-0.006c-0.278-0.001-0.459-0.116-0.544-0.346l-0.17-0.522
		c-0.149,0.145-0.306,0.276-0.468,0.395c-0.163,0.118-0.34,0.22-0.528,0.305c-0.189,0.086-0.394,0.15-0.611,0.196
		c-0.217,0.045-0.453,0.067-0.706,0.066c-0.388-0.001-0.746-0.082-1.075-0.242c-0.329-0.159-0.612-0.39-0.851-0.69
		s-0.424-0.668-0.559-1.103s-0.201-0.93-0.199-1.484c0.002-0.512,0.081-0.986,0.235-1.424s0.372-0.815,0.653-1.134
		s0.618-0.567,1.011-0.747c0.394-0.179,0.826-0.268,1.299-0.266c0.389,0.002,0.713,0.054,0.976,0.156s0.501,0.239,0.716,0.413
		l0.014-3.471L57.501,71.943z M55.258,76.812c-0.167-0.173-0.348-0.294-0.544-0.362c-0.195-0.069-0.4-0.104-0.616-0.104
		c-0.205-0.001-0.395,0.035-0.567,0.109c-0.172,0.074-0.321,0.194-0.449,0.358c-0.127,0.165-0.228,0.379-0.3,0.644
		c-0.073,0.264-0.11,0.583-0.111,0.958c-0.002,0.361,0.025,0.665,0.082,0.912s0.136,0.446,0.237,0.599
		c0.103,0.153,0.226,0.263,0.368,0.329c0.145,0.066,0.304,0.101,0.48,0.102c0.162,0,0.31-0.014,0.441-0.042
		c0.132-0.027,0.252-0.068,0.362-0.12c0.11-0.053,0.215-0.119,0.313-0.2c0.099-0.082,0.195-0.175,0.292-0.28L55.258,76.812z"/>
	<path fill="#303030" d="M65.092,75.014l-0.027,6.854l-1.377-0.005c-0.277-0.001-0.459-0.116-0.544-0.346l-0.128-0.397
		c-0.144,0.128-0.293,0.242-0.446,0.346c-0.153,0.103-0.317,0.19-0.492,0.262c-0.175,0.072-0.364,0.129-0.567,0.17
		s-0.424,0.061-0.663,0.061c-0.406-0.002-0.767-0.068-1.078-0.199c-0.313-0.132-0.577-0.314-0.791-0.549s-0.376-0.511-0.484-0.828
		c-0.109-0.317-0.162-0.666-0.161-1.045l0.018-4.349l2.224,0.009l-0.018,4.349c-0.001,0.34,0.081,0.603,0.248,0.787
		c0.166,0.187,0.412,0.279,0.737,0.281c0.244,0.001,0.473-0.046,0.686-0.14s0.42-0.222,0.622-0.384l0.019-4.885L65.092,75.014z"/>
	<path fill="#303030" d="M73.111,81.899l-2.137-0.009c-0.158,0-0.286-0.036-0.384-0.106c-0.098-0.071-0.175-0.155-0.231-0.253
		l-1.319-2.106c-0.024,0.075-0.054,0.146-0.087,0.211s-0.07,0.128-0.108,0.185l-1.097,1.701c-0.067,0.088-0.146,0.169-0.238,0.243
		c-0.091,0.075-0.208,0.111-0.352,0.111l-1.979-0.008l2.51-3.533l-2.383-3.32l2.138,0.009c0.157,0,0.274,0.02,0.348,0.058
		c0.074,0.037,0.14,0.101,0.196,0.188l1.319,2.034c0.029-0.078,0.065-0.156,0.108-0.233c0.044-0.077,0.091-0.155,0.145-0.234
		l0.952-1.523c0.068-0.097,0.139-0.166,0.213-0.21c0.075-0.044,0.166-0.065,0.276-0.065l2.037,0.008l-2.408,3.21L73.111,81.899z"
		/>
</svg>
